<svg width="32" height="32" viewBox="0 0 32 32" fill="none" xmlns="http://www.w3.org/2000/svg">
<g clip-path="url(#clip0_711_37795)">
<path d="M26.8242 3.15625H4.82422C3.44422 3.15625 2.32422 4.27625 2.32422 5.65625V7.32625C2.32422 8.70625 3.79422 10.1762 5.17422 10.1762H27.1742C28.5542 10.1762 29.6742 9.05625 29.6742 7.67625V6.00625C29.6742 4.62625 28.2042 3.15625 26.8242 3.15625Z" fill="#191919"/>
<path d="M26.8242 4.65625H4.82422C4.27193 4.65625 3.82422 5.10397 3.82422 5.65625V7.32625C3.82422 7.87853 4.27193 8.32625 4.82422 8.32625H26.8242C27.3765 8.32625 27.8242 7.87853 27.8242 7.32625V5.65625C27.8242 5.10397 27.3765 4.65625 26.8242 4.65625Z" fill="#F5F5F5"/>
<path d="M26.8242 12.4844H4.82422C3.44422 12.4844 2.32422 13.6044 2.32422 14.9844V16.6544C2.32422 18.0344 3.79422 19.5044 5.17422 19.5044H27.1742C28.5542 19.5044 29.6742 18.3844 29.6742 17.0044V15.3344C29.6742 13.9544 28.2042 12.4844 26.8242 12.4844Z" fill="#191919"/>
<path d="M26.8242 13.9844H4.82422C4.27193 13.9844 3.82422 14.4321 3.82422 14.9844V16.6544C3.82422 17.2067 4.27193 17.6544 4.82422 17.6544H26.8242C27.3765 17.6544 27.8242 17.2067 27.8242 16.6544V14.9844C27.8242 14.4321 27.3765 13.9844 26.8242 13.9844Z" fill="#F5F5F5"/>
<path d="M26.8242 21.8281H4.82422C3.44422 21.8281 2.32422 22.9481 2.32422 24.3281V25.9981C2.32422 27.3781 3.79422 28.8481 5.17422 28.8481H27.1742C28.5542 28.8481 29.6742 27.7281 29.6742 26.3481V24.6781C29.6742 23.2981 28.2042 21.8281 26.8242 21.8281Z" fill="#191919"/>
<path d="M26.8242 23.3281H4.82422C4.27193 23.3281 3.82422 23.7758 3.82422 24.3281V25.9981C3.82422 26.5504 4.27193 26.9981 4.82422 26.9981H26.8242C27.3765 26.9981 27.8242 26.5504 27.8242 25.9981V24.3281C27.8242 23.7758 27.3765 23.3281 26.8242 23.3281Z" fill="#F5F5F5"/>
</g>
<defs>
<clipPath id="clip0_711_37795">
<rect width="32" height="32" fill="white"/>
</clipPath>
</defs>
</svg>
